<svg width="36" height="36" viewBox="0 0 36 36" fill="none" xmlns="http://www.w3.org/2000/svg">
<path d="M15.12 2.16C8.36856 2.16 2.88 7.64857 2.88 14.4C2.88 21.1514 8.36856 26.64 15.12 26.64C17.7929 26.64 20.2602 25.7696 22.275 24.3113L31.7419 33.7781L33.7781 31.7419L24.3984 22.3622C26.2393 20.2198 27.36 17.441 27.36 14.4C27.36 7.64857 21.8714 2.16 15.12 2.16ZM15.12 3.6C21.0932 3.6 25.92 8.4268 25.92 14.4C25.92 20.3732 21.0932 25.2 15.12 25.2C9.1468 25.2 4.32 20.3732 4.32 14.4C4.32 8.4268 9.1468 3.6 15.12 3.6Z" fill="white"/>
</svg>
